<svg width="22" height="20" viewBox="0 0 22 20" fill="none" xmlns="http://www.w3.org/2000/svg">
<g clip-path="url(#clip0_8974_857)">
<path d="M4.33243 9.82942C5.5312 9.82942 6.50545 8.80833 6.50545 7.55194C6.50545 6.29554 5.5312 5.27446 4.33243 5.27446C3.13366 5.27446 2.15941 6.29554 2.15941 7.55194C2.16186 8.80851 3.1359 9.82942 4.33243 9.82942ZM4.33243 5.83915C5.2355 5.83915 5.96912 6.60785 5.96912 7.55452C5.96912 8.50101 5.23568 9.26989 4.33243 9.26989C3.42936 9.26989 2.69574 8.50118 2.69574 7.55452C2.69819 6.60805 3.43164 5.83915 4.33243 5.83915ZM17.6726 9.82942C18.8713 9.82942 19.8456 8.80833 19.8456 7.55194C19.8456 6.29554 18.8713 5.27446 17.6726 5.27446C16.4738 5.27446 15.4995 6.29554 15.4995 7.55194C15.4995 8.80851 16.4738 9.82942 17.6726 9.82942ZM17.6726 5.83915C18.5756 5.83915 19.3093 6.60785 19.3093 7.55452C19.3093 8.50101 18.5758 9.26989 17.6726 9.26989C16.7695 9.26989 16.0359 8.50118 16.0359 7.55452C16.0359 6.60805 16.7695 5.83915 17.6726 5.83915ZM17.6726 10.2234C16.5953 10.2234 15.5821 10.6391 14.7845 11.3934C13.8102 10.4012 12.4808 9.78616 11.0185 9.78616C9.54917 9.78616 8.21521 10.4036 7.23867 11.4053C6.43879 10.6438 5.42098 10.2233 4.33677 10.2233C1.94376 10.2235 0 12.2607 0 14.7639V15.2253C0 15.6384 0.320901 15.9747 0.715088 15.9747H5.64097C5.76251 16.5105 6.22086 16.9117 6.76873 16.9117H9.18467L8.91886 18.358C8.87986 18.5742 8.96013 18.7903 9.12976 18.9201C9.29939 19.0498 9.51938 19.0641 9.70512 18.9562L10.9955 18.2091L12.2859 18.9562C12.3685 19.0042 12.4578 19.0282 12.5472 19.0282C12.6572 19.0282 12.7672 18.9921 12.8613 18.9201C13.0309 18.7903 13.1135 18.5742 13.0722 18.358L12.8064 16.9117H15.259C15.8069 16.9117 16.2653 16.5105 16.3868 15.9747H21.2849C21.6791 15.9747 22 15.6384 22 15.2253V14.7639C22.0047 12.2606 20.0611 10.2234 17.6726 10.2234ZM5.60654 15.4124H0.715133C0.616503 15.4124 0.536408 15.3282 0.536408 15.2251V14.7637C0.536408 12.5704 2.23954 10.7854 4.33229 10.7854C5.27892 10.7854 6.17057 11.1529 6.86977 11.8184C6.09017 12.7938 5.61791 14.0454 5.60654 15.4124ZM12.2699 16.9474L12.5495 18.4657L11.2591 17.7186C11.094 17.6226 10.906 17.6226 10.7411 17.7186L9.45073 18.4657L9.73036 16.9474C9.76709 16.7527 9.70745 16.5654 9.56983 16.4309L8.4926 15.3739L9.95492 15.1816C10.1406 15.1576 10.2942 15.04 10.3745 14.8622L10.9979 13.4617V13.4641L11.6236 14.8646C11.7039 15.0423 11.8574 15.16 12.0432 15.184L13.5055 15.3763L12.4283 16.4333C12.2929 16.563 12.2333 16.7527 12.2699 16.9474ZM15.8893 15.6933C15.8893 16.0561 15.6074 16.3491 15.2636 16.3491H13.2969L13.8745 15.7823C14.0281 15.6309 14.0832 15.4074 14.019 15.1985C13.9548 14.9896 13.7829 14.8406 13.5743 14.8142L12.112 14.6219L11.4862 13.2214C11.3969 13.022 11.2111 12.8972 11.0003 12.8972C10.7894 12.8972 10.6036 13.0222 10.5143 13.2214L9.88856 14.6219L8.42624 14.8142C8.21761 14.8406 8.04799 14.9896 7.98153 15.1985C7.91735 15.4075 7.97244 15.6333 8.12598 15.7823L8.70359 16.3491H6.77366C6.42758 16.3491 6.14793 16.0537 6.14793 15.6933L6.14758 15.4554C6.14758 12.6398 8.33425 10.3481 11.0206 10.3481C13.7071 10.3481 15.8937 12.6399 15.8937 15.4554V15.6933H15.8893ZM21.4684 15.2249C21.4684 15.3282 21.3881 15.4122 21.2897 15.4122L16.426 15.4124C16.4169 14.0383 15.9378 12.7795 15.1492 11.8041C15.8484 11.1483 16.7331 10.7856 17.6729 10.7856C19.7656 10.7856 21.4687 12.5706 21.4687 14.7639L21.4684 15.2249ZM11.0163 9.13976C12.4924 9.13976 13.6935 7.88097 13.6935 6.33386C13.6935 4.78675 12.4924 3.52797 11.0163 3.52797C9.54013 3.52778 8.3389 4.78914 8.3389 6.33625C8.3389 7.88336 9.54013 9.13976 11.0163 9.13976ZM11.0163 4.09251C12.1967 4.09251 13.1571 5.0991 13.1571 6.33625C13.1571 7.57341 12.1967 8.58 11.0163 8.58C9.83587 8.58 8.87545 7.57341 8.87545 6.33625C8.87545 5.0991 9.83569 4.09251 11.0163 4.09251ZM10.7297 1.96659V0.489165C10.7297 0.333008 10.8489 0.208008 10.9979 0.208008C11.1469 0.208008 11.2662 0.333008 11.2662 0.489165V1.96659C11.2662 2.12275 11.1469 2.24775 10.9979 2.24775C10.8489 2.24757 10.7297 2.12275 10.7297 1.96659ZM6.86976 2.41344C6.76431 2.30291 6.76431 2.12513 6.86976 2.01461C6.97522 1.90409 7.14484 1.90409 7.2503 2.01461L8.24743 3.05967C8.35288 3.17019 8.35288 3.34797 8.24743 3.4585C8.19479 3.51366 8.12589 3.54024 8.05716 3.54024C7.98843 3.54024 7.91971 3.51385 7.86689 3.4585L6.86976 2.41344ZM13.7623 3.43194C13.6569 3.32142 13.6569 3.14364 13.7623 3.03311L14.7595 1.98805C14.8649 1.87753 15.0345 1.87753 15.14 1.98805C15.2454 2.09858 15.2454 2.27636 15.14 2.38688L14.1429 3.43194C14.0902 3.48711 14.0213 3.51368 13.9526 3.51368C13.8816 3.51368 13.8127 3.48711 13.7623 3.43194Z" fill="#AED5BA"/>
</g>
<defs>
<clipPath id="clip0_8974_857">
<rect width="22" height="20" fill="white"/>
</clipPath>
</defs>
</svg>
