<svg width="116" height="116" viewBox="0 0 116 116" fill="none" xmlns="http://www.w3.org/2000/svg">
<path fill-rule="evenodd" clip-rule="evenodd" d="M45.7483 0.30803C42.1108 1.09928 38.8954 3.92561 37.5759 7.49092C37.2616 8.33983 37.0801 8.55217 36.7445 8.46428C36.0681 8.28733 31.5323 8.84045 29.5944 9.33592C23.8823 10.797 18.4143 14.7047 15.107 19.6897C13.694 21.8197 12.3594 24.6408 11.9029 26.4638C11.6406 27.5105 11.5987 27.5485 10.2667 27.9476C6.08921 29.199 2.33733 33.1501 1.20882 37.4862C0.604831 39.8063 0.705144 42.8075 1.46171 45.0617L2.08163 46.9083L1.48655 48.3364C-1.27087 54.954 -0.140482 62.4451 4.44741 67.9583C5.6003 69.3434 5.63569 69.4308 5.68444 71.0011C5.7271 72.3722 5.8846 72.9207 6.72132 74.6089C7.86764 76.9224 10.4697 79.8242 13.578 82.2556C14.628 83.0769 15.6815 83.907 15.9194 84.1004C16.3309 84.4351 16.289 84.5422 15.0468 86.3269C14.3289 87.3582 13.1744 89.3621 12.4811 90.7801C10.112 95.6246 9.13913 99.484 8.92983 104.869C8.73788 109.803 8.14397 109.413 15.8437 109.413C20.3167 109.413 21.9951 109.336 22.2862 109.12C22.5027 108.959 22.8897 108.002 23.1461 106.993C23.4027 105.984 23.905 104.62 24.2622 103.962C25.9476 100.854 30.2725 97.4347 34.2444 96.068C37.8716 94.8202 41.1587 92.3166 43.1983 89.2489C44.5417 87.2281 45.2554 85.4872 45.7893 82.9285C46.018 81.8328 46.2292 80.9023 46.2587 80.8611C46.2883 80.8196 48.7745 81.4819 51.7841 82.333C56.5722 83.6869 60.284 84.5426 64.232 85.2026L65.3493 85.3894L60.3972 93.8269C54.8903 103.21 54.6534 103.667 54.2992 105.583C53.7126 108.757 55.3907 112.461 58.2449 114.293C60.4565 115.712 59.7156 115.675 85.3806 115.634L108.818 115.596L110.142 115.075C114.637 113.305 116.928 107.775 114.954 103.462C114.647 102.792 112.359 98.7687 109.869 94.5202C103.824 84.2058 98.3884 74.7289 98.3884 74.5034C98.3884 74.4026 98.8893 74.1322 99.5017 73.9025C107.121 71.0422 112.841 64.6894 114.965 56.7268C115.498 54.7294 115.572 53.9944 115.572 50.7019C115.572 47.4174 115.497 46.6721 114.97 44.6975C114.639 43.4576 113.998 41.6405 113.545 40.6599C112.773 38.9902 112.729 38.7666 112.851 37.1525C113.033 34.7492 112.596 32.5416 111.48 30.2241C109.941 27.0287 106.848 24.3406 103.611 23.3848C102.724 23.1233 102.584 22.9789 102.255 21.9901C100.739 17.4237 96.2308 14.2517 91.2318 14.2332C90.1877 14.2294 89.077 14.2885 88.7634 14.3647C88.2667 14.4851 88.0778 14.323 87.3011 13.1103C84.4148 8.60397 79.4687 4.99951 73.8962 3.34108C72.1698 2.82733 71.1655 2.69233 68.3636 2.59764C64.5154 2.46733 62.4135 2.77483 59.2443 3.93147L57.4234 4.59615L56.1876 3.34459C54.6709 1.80897 52.7355 0.74842 50.6392 0.304045C48.7206 -0.102361 47.6305 -0.101658 45.7483 0.30803ZM46.2948 3.496C43.3265 4.19537 40.866 6.8192 40.2906 9.89865C39.9534 11.704 39.7792 11.7861 36.2146 11.8217C32.7304 11.8566 30.1403 12.3598 27.363 13.5418C21.2814 16.1297 16.4144 21.8063 14.8138 28.1783C14.3411 30.0603 13.8901 30.5518 12.4562 30.7484C9.65991 31.1316 6.48671 33.5398 5.15686 36.2879C3.69132 39.3167 3.67538 42.4386 5.11116 45.3551C5.9453 47.0494 7.77179 48.5813 9.9721 49.4321C11.8007 50.1392 15.0998 50.3103 16.8866 49.7909C18.5814 49.2983 19.4753 49.313 19.9537 49.8415C20.4616 50.4026 20.4496 51.5905 19.9314 52.0395C19.1549 52.7124 17.1838 53.2112 14.8187 53.3333C11.313 53.514 8.71491 52.8139 5.91014 50.933C4.14436 49.7492 4.20858 49.7044 3.57788 52.557C3.2753 53.9267 3.20264 54.9692 3.30061 56.5414C3.546 60.4805 4.94007 63.702 7.63608 66.56C9.04186 68.0501 9.17616 68.2787 9.10491 69.0603C8.91577 71.131 9.03179 72.0533 9.6264 73.2019C10.8468 75.56 13.4041 78.1344 17.508 81.1355C18.5922 81.9282 19.6731 82.7614 19.9103 82.9871C20.7088 83.7467 20.4456 84.544 18.5753 87.0301C14.8541 91.9763 12.5662 98.0581 12.2026 103.97L12.0688 106.143L15.9972 106.079L19.9253 106.014L20.4541 104.553C21.5617 101.493 23.5954 98.8667 26.6207 96.5883C28.5095 95.1659 31.5149 93.507 33.115 93.0033C35.3849 92.289 37.4371 90.9467 39.348 88.9264C41.1353 87.0371 42.8282 82.9726 42.838 80.5475L42.8416 79.6901L39.033 77.8079C36.4363 76.5247 34.6192 75.4442 33.3222 74.4125C31.1716 72.7011 30.8008 71.9893 31.5412 70.9925C32.249 70.0405 33.1951 70.0812 34.4261 71.1176C38.0087 74.1338 42.8153 76.3742 50.2244 78.4815C59.5872 81.1442 63.4305 81.9901 66.1619 81.9884L67.3337 81.9877L72.486 72.9073C75.3198 67.913 78.0447 63.3833 78.5416 62.8412C81.9095 59.1652 87.9358 59.1753 91.2845 62.8622C91.9047 63.545 93.3419 65.7465 94.4783 67.7546L96.5448 71.4054L98.1156 70.8713C104.88 68.5704 110.12 62.7636 111.911 55.5837C112.189 54.4667 112.312 52.992 112.316 50.7019C112.323 46.888 111.863 44.7523 110.326 41.472L109.406 39.5077L109.554 37.2469C109.79 33.6446 108.783 30.9387 106.395 28.756C104.895 27.3851 104.011 26.9044 101.756 26.2344C99.9653 25.7021 99.9651 25.7019 99.3173 23.5144C98.6125 21.1346 96.52 18.8623 94.2522 18.0137C92.7121 17.4376 90.3367 17.3356 88.6316 17.7727C86.9716 18.1981 86.3113 17.9724 85.7064 16.7724C84.8259 15.0254 83.2614 13.0119 81.4394 11.2812C77.2044 7.25842 71.7126 5.386 65.5305 5.85733C63.1666 6.03733 61.5341 6.46647 58.8313 7.61819C57.6083 8.1392 56.6931 8.39514 56.3551 8.3103C56.054 8.23459 55.4151 7.58936 54.8976 6.83772C52.9806 4.05451 49.5618 2.72631 46.2948 3.496ZM39.6775 22.4677C36.5502 22.8235 33.7647 24.1053 31.5604 26.2027C29.9348 27.7496 29.7353 28.6341 30.8198 29.4872C31.6792 30.1632 32.3582 29.9551 33.8284 28.5645C35.867 26.6365 38.1944 25.7227 41.1008 25.7094C44.2136 25.6948 46.5372 26.5955 49.0269 28.7815C50.5347 30.1053 51.209 30.2035 52.0408 29.2208C52.5784 28.5854 52.5583 28.1504 51.9508 27.279C49.731 24.095 44.2527 21.9474 39.6775 22.4677ZM75.0681 38.5114C69.452 40.0344 65.458 44.3832 64.4814 50.0382C64.0555 52.5045 64.1772 53.8187 64.8841 54.391C66.1246 55.3955 67.4483 54.5518 67.4549 52.7527C67.4692 48.8862 69.3674 45.2663 72.4312 43.2638C74.2769 42.0573 75.5437 41.6422 77.9516 41.4549C80.2525 41.2758 80.6687 41.0762 80.9254 40.0278C81.0273 39.6111 80.9209 39.2405 80.5722 38.7973C80.1002 38.1973 79.9694 38.1638 78.1565 38.1783C77.1025 38.1868 75.7126 38.3368 75.0681 38.5114ZM28.0759 57.8504C27.801 58.1253 27.6072 58.6315 27.6072 59.0745C27.6072 60.6776 31.7577 63.653 35.215 64.5279C37.0075 64.9817 40.2426 64.981 42.0306 64.5265C44.3662 63.9329 46.7795 62.6061 48.3998 61.0252C50.0387 59.4263 50.2035 58.8629 49.2974 57.957C48.4694 57.1287 47.7691 57.23 46.5719 58.351C44.1773 60.5937 41.7046 61.6004 38.5907 61.6004C35.5954 61.6004 33.3756 60.6999 30.9444 58.4982C29.5839 57.2661 28.8304 57.0959 28.0759 57.8504ZM84.006 73.3362L83.3884 73.8219V84.0003C83.3884 93.8661 83.4027 94.1928 83.8572 94.6472C84.448 95.2381 85.285 95.2463 85.9991 94.6681L86.5525 94.2202L86.6186 84.4224C86.6894 73.962 86.6441 73.4759 85.5632 73.0651C84.7872 72.77 84.7082 72.7838 84.006 73.3362ZM83.7763 103.279C82.8304 104.324 83.5729 106.6 84.8596 106.6C86.5352 106.6 87.2814 103.97 85.8728 103.03C85.3844 102.703 84.1661 102.848 83.7763 103.279Z" fill="#AED5BA"/>
</svg>
